<?xml version="1.0" standalone="no"?>
<!DOCTYPE svg PUBLIC "-//W3C//DTD SVG 20010904//EN"
 "http://www.w3.org/TR/2001/REC-SVG-20010904/DTD/svg10.dtd">
<svg version="1.0" xmlns="http://www.w3.org/2000/svg"
 width="300.000000pt" height="300.000000pt" viewBox="0 0 300.000000 300.000000"
 preserveAspectRatio="xMidYMid meet">
<metadata>
Created by potrace 1.14, written by Peter Selinger 2001-2017
</metadata>
<g transform="translate(0.000000,300.000000) scale(0.100000,-0.100000)"
fill="#000000" stroke="none">
<path d="M116 2980 c-50 -25 -93 -74 -106 -119 -14 -50 -13 -2673 0 -2723 14
-48 80 -114 127 -127 26 -8 472 -11 1373 -11 l1335 1 44 22 c23 12 57 42 75
66 l31 43 0 1367 0 1367 -25 37 c-14 21 -43 50 -64 65 l-39 27 -1356 2 c-1327
2 -1357 2 -1395 -17z"/>
</g>
</svg>
